<?xml version="1.0" encoding="UTF-8"?>
<svg xmlns="http://www.w3.org/2000/svg" xmlns:xlink="http://www.w3.org/1999/xlink" width="54px" height="54px" viewBox="0 0 54 54" version="1.1">
<g id="surface1">
<rect x="0" y="0" width="54" height="54" style="fill:rgb(0%,0%,0%);fill-opacity:1;stroke:none;"/>
<path style=" stroke:none;fill-rule:nonzero;fill:rgb(95.686275%,95.686275%,95.686275%);fill-opacity:1;" d="M 6.75 9 C 6.75 7.757812 7.757812 6.75 9 6.75 L 22.5 6.75 C 23.742188 6.75 24.75 7.757812 24.75 9 L 24.75 22.5 C 24.75 23.742188 23.742188 24.75 22.5 24.75 L 9 24.75 C 7.757812 24.75 6.75 23.742188 6.75 22.5 Z M 6.75 9 "/>
<path style=" stroke:none;fill-rule:nonzero;fill:rgb(95.686275%,95.686275%,95.686275%);fill-opacity:1;" d="M 6.75 31.5 C 6.75 30.257812 7.757812 29.25 9 29.25 L 22.5 29.25 C 23.742188 29.25 24.75 30.257812 24.75 31.5 L 24.75 45 C 24.75 46.242188 23.742188 47.25 22.5 47.25 L 9 47.25 C 7.757812 47.25 6.75 46.242188 6.75 45 Z M 6.75 31.5 "/>
<path style=" stroke:none;fill-rule:nonzero;fill:rgb(95.686275%,95.686275%,95.686275%);fill-opacity:1;" d="M 29.25 9 C 29.25 7.757812 30.257812 6.75 31.5 6.75 L 45 6.75 C 46.242188 6.75 47.25 7.757812 47.25 9 L 47.25 22.5 C 47.25 23.742188 46.242188 24.75 45 24.75 L 31.5 24.75 C 30.257812 24.75 29.25 23.742188 29.25 22.5 Z M 29.25 9 "/>
<path style=" stroke:none;fill-rule:evenodd;fill:rgb(95.686275%,95.686275%,95.686275%);fill-opacity:1;" d="M 32.175781 32.175781 L 32.175781 44.324219 L 44.324219 44.324219 L 44.324219 32.175781 Z M 31.5 29.25 C 30.257812 29.25 29.25 30.257812 29.25 31.5 L 29.25 45 C 29.25 46.242188 30.257812 47.25 31.5 47.25 L 45 47.25 C 46.242188 47.25 47.25 46.242188 47.25 45 L 47.25 31.5 C 47.25 30.257812 46.242188 29.25 45 29.25 Z M 31.5 29.25 "/>
</g>
</svg>
